{
    "asset" : {
        "generator" : "Khronos glTF Blender I/O v1.1.46",
        "version" : "2.0"
    },
    "scene" : 0,
    "scenes" : [
        {
            "name" : "Scene",
            "nodes" : [
                0,
                1,
                2,
                3,
                4,
                5,
                6
            ]
        }
    ],
    "nodes" : [
        {
            "mesh" : 0,
            "name" : "Circle"
        },
        {
            "mesh" : 1,
            "name" : "Plane"
        },
        {
            "name" : "Circle.001"
        },
        {
            "name" : "BezierCircle",
            "rotation" : [
                0,
                0,
                -1,
                7.549790126404332e-08
            ]
        },
        {
            "mesh" : 2,
            "name" : "Cylinder"
        },
        {
            "mesh" : 3,
            "name" : "wheel"
        },
        {
            "mesh" : 4,
            "name" : "Plane.001"
        }
    ],
    "materials" : [
        {
            "doubleSided" : true,
            "emissiveFactor" : [
                0,
                0,
                0
            ],
            "name" : "phong5",
            "pbrMetallicRoughness" : {
                "baseColorTexture" : {
                    "index" : 0,
                    "texCoord" : 0
                },
                "metallicFactor" : 0,
                "roughnessFactor" : 0.5527864098548889
            }
        },
        {
            "doubleSided" : true,
            "emissiveFactor" : [
                0,
                0,
                0
            ],
            "name" : "phong4",
            "pbrMetallicRoughness" : {
                "baseColorFactor" : [
                    0.5,
                    0.5,
                    0.5,
                    1
                ],
                "metallicFactor" : 0,
                "roughnessFactor" : 0.5527864098548889
            }
        },
        {
            "doubleSided" : true,
            "emissiveFactor" : [
                0,
                0,
                0
            ],
            "name" : "tiresidewall_a_glos",
            "pbrMetallicRoughness" : {
                "baseColorFactor" : [
                    0.800000011920929,
                    0.800000011920929,
                    0.800000011920929,
                    1
                ],
                "metallicFactor" : 0,
                "roughnessFactor" : 0.5
            }
        },
        {
            "doubleSided" : true,
            "emissiveFactor" : [
                0,
                0,
                0
            ],
            "name" : "ao_grey__env_14_spec_",
            "pbrMetallicRoughness" : {
                "baseColorFactor" : [
                    0.800000011920929,
                    0.800000011920929,
                    0.800000011920929,
                    1
                ],
                "metallicFactor" : 0,
                "roughnessFactor" : 0.5
            }
        },
        {
            "doubleSided" : true,
            "emissiveFactor" : [
                0,
                0,
                0
            ],
            "name" : "vorsteiner_logo__env_14_spec_",
            "pbrMetallicRoughness" : {
                "baseColorFactor" : [
                    0.800000011920929,
                    0.800000011920929,
                    0.800000011920929,
                    1
                ],
                "metallicFactor" : 0,
                "roughnessFactor" : 0.5
            }
        }
    ],
    "meshes" : [
        {
            "name" : "Mesh",
            "primitives" : [
                {
                    "attributes" : {
                        "POSITION" : 0,
                        "NORMAL" : 1,
                        "TEXCOORD_0" : 2
                    },
                    "indices" : 3,
                    "material" : 0
                }
            ]
        },
        {
            "name" : "Mesh.001",
            "primitives" : [
                {
                    "attributes" : {
                        "POSITION" : 4,
                        "NORMAL" : 5,
                        "TEXCOORD_0" : 6
                    },
                    "indices" : 7,
                    "material" : 0
                }
            ]
        },
        {
            "name" : "Mesh.004",
            "primitives" : [
                {
                    "attributes" : {
                        "POSITION" : 8,
                        "NORMAL" : 9,
                        "TEXCOORD_0" : 10
                    },
                    "indices" : 11,
                    "material" : 1
                }
            ]
        },
        {
            "name" : "Mesh.005",
            "primitives" : [
                {
                    "attributes" : {
                        "POSITION" : 12,
                        "NORMAL" : 13,
                        "TEXCOORD_0" : 14
                    },
                    "indices" : 15,
                    "material" : 2
                },
                {
                    "attributes" : {
                        "POSITION" : 16,
                        "NORMAL" : 17,
                        "TEXCOORD_0" : 18
                    },
                    "indices" : 19,
                    "material" : 3
                },
                {
                    "attributes" : {
                        "POSITION" : 20,
                        "NORMAL" : 21,
                        "TEXCOORD_0" : 22
                    },
                    "indices" : 23,
                    "material" : 4
                }
            ]
        },
        {
            "name" : "Mesh.006",
            "primitives" : [
                {
                    "attributes" : {
                        "POSITION" : 24,
                        "NORMAL" : 25,
                        "TEXCOORD_0" : 26
                    },
                    "indices" : 27,
                    "material" : 0
                }
            ]
        }
    ],
    "textures" : [
        {
            "source" : 0
        }
    ],
    "images" : [
        {
            "mimeType" : "image/jpeg",
            "name" : "DUELER H_L 400",
            "uri" : "textures/DUELER%20H_L%20400.jpg"
        }
    ],
    "accessors" : [
        {
            "bufferView" : 0,
            "componentType" : 5126,
            "count" : 3950,
            "max" : [
                0.6202999353408813,
                1.7686783075332642,
                1.7721753120422363
            ],
            "min" : [
                -0.6202999353408813,
                -1.7686783075332642,
                -1.7721753120422363
            ],
            "type" : "VEC3"
        },
        {
            "bufferView" : 1,
            "componentType" : 5126,
            "count" : 3950,
            "type" : "VEC3"
        },
        {
            "bufferView" : 2,
            "componentType" : 5126,
            "count" : 3950,
            "type" : "VEC2"
        },
        {
            "bufferView" : 3,
            "componentType" : 5123,
            "count" : 21000,
            "type" : "SCALAR"
        },
        {
            "bufferView" : 4,
            "componentType" : 5126,
            "count" : 866629,
            "max" : [
                0.6022096276283264,
                1.8035260438919067,
                1.8169550895690918
            ],
            "min" : [
                -0.6034762263298035,
                -1.803501844406128,
                -1.7900421619415283
            ],
            "type" : "VEC3"
        },
        {
            "bufferView" : 5,
            "componentType" : 5126,
            "count" : 866629,
            "type" : "VEC3"
        },
        {
            "bufferView" : 6,
            "componentType" : 5126,
            "count" : 866629,
            "type" : "VEC2"
        },
        {
            "bufferView" : 7,
            "componentType" : 5125,
            "count" : 1501665,
            "type" : "SCALAR"
        },
        {
            "bufferView" : 8,
            "componentType" : 5126,
            "count" : 132,
            "max" : [
                0.522355854511261,
                1.653498888015747,
                1.653498888015747
            ],
            "min" : [
                -0.522355854511261,
                -1.653498888015747,
                -1.6534985303878784
            ],
            "type" : "VEC3"
        },
        {
            "bufferView" : 9,
            "componentType" : 5126,
            "count" : 132,
            "type" : "VEC3"
        },
        {
            "bufferView" : 10,
            "componentType" : 5126,
            "count" : 132,
            "type" : "VEC2"
        },
        {
            "bufferView" : 11,
            "componentType" : 5123,
            "count" : 576,
            "type" : "SCALAR"
        },
        {
            "bufferView" : 12,
            "componentType" : 5126,
            "count" : 94,
            "max" : [
                0.40875008702278137,
                1.0243762731552124,
                -0.08490864932537079
            ],
            "min" : [
                0.34606683254241943,
                0.9403217434883118,
                -0.168670654296875
            ],
            "type" : "VEC3"
        },
        {
            "bufferView" : 13,
            "componentType" : 5126,
            "count" : 94,
            "type" : "VEC3"
        },
        {
            "bufferView" : 14,
            "componentType" : 5126,
            "count" : 94,
            "type" : "VEC2"
        },
        {
            "bufferView" : 15,
            "componentType" : 5123,
            "count" : 360,
            "type" : "SCALAR"
        },
        {
            "bufferView" : 16,
            "componentType" : 5126,
            "count" : 23946,
            "max" : [
                0.4888533353805542,
                1.128706932067871,
                1.1329375505447388
            ],
            "min" : [
                -0.4911269545555115,
                -1.1279646158218384,
                -1.1255030632019043
            ],
            "type" : "VEC3"
        },
        {
            "bufferView" : 17,
            "componentType" : 5126,
            "count" : 23946,
            "type" : "VEC3"
        },
        {
            "bufferView" : 18,
            "componentType" : 5126,
            "count" : 23946,
            "type" : "VEC2"
        },
        {
            "bufferView" : 19,
            "componentType" : 5123,
            "count" : 133284,
            "type" : "SCALAR"
        },
        {
            "bufferView" : 20,
            "componentType" : 5126,
            "count" : 732,
            "max" : [
                0.26423144340515137,
                0.2419300675392151,
                0.27377578616142273
            ],
            "min" : [
                0.09208933264017105,
                -0.26778313517570496,
                -0.24604545533657074
            ],
            "type" : "VEC3"
        },
        {
            "bufferView" : 21,
            "componentType" : 5126,
            "count" : 732,
            "type" : "VEC3"
        },
        {
            "bufferView" : 22,
            "componentType" : 5126,
            "count" : 732,
            "type" : "VEC2"
        },
        {
            "bufferView" : 23,
            "componentType" : 5123,
            "count" : 3768,
            "type" : "SCALAR"
        },
        {
            "bufferView" : 24,
            "componentType" : 5126,
            "count" : 4474,
            "max" : [
                0.2743927836418152,
                0.09282974898815155,
                0.09785184264183044
            ],
            "min" : [
                0.2315296232700348,
                -0.07303230464458466,
                -0.08544652163982391
            ],
            "type" : "VEC3"
        },
        {
            "bufferView" : 25,
            "componentType" : 5126,
            "count" : 4474,
            "type" : "VEC3"
        },
        {
            "bufferView" : 26,
            "componentType" : 5126,
            "count" : 4474,
            "type" : "VEC2"
        },
        {
            "bufferView" : 27,
            "componentType" : 5123,
            "count" : 24288,
            "type" : "SCALAR"
        }
    ],
    "bufferViews" : [
        {
            "buffer" : 0,
            "byteLength" : 47400,
            "byteOffset" : 0
        },
        {
            "buffer" : 0,
            "byteLength" : 47400,
            "byteOffset" : 47400
        },
        {
            "buffer" : 0,
            "byteLength" : 31600,
            "byteOffset" : 94800
        },
        {
            "buffer" : 0,
            "byteLength" : 42000,
            "byteOffset" : 126400
        },
        {
            "buffer" : 0,
            "byteLength" : 10399548,
            "byteOffset" : 168400
        },
        {
            "buffer" : 0,
            "byteLength" : 10399548,
            "byteOffset" : 10567948
        },
        {
            "buffer" : 0,
            "byteLength" : 6933032,
            "byteOffset" : 20967496
        },
        {
            "buffer" : 0,
            "byteLength" : 6006660,
            "byteOffset" : 27900528
        },
        {
            "buffer" : 0,
            "byteLength" : 1584,
            "byteOffset" : 33907188
        },
        {
            "buffer" : 0,
            "byteLength" : 1584,
            "byteOffset" : 33908772
        },
        {
            "buffer" : 0,
            "byteLength" : 1056,
            "byteOffset" : 33910356
        },
        {
            "buffer" : 0,
            "byteLength" : 1152,
            "byteOffset" : 33911412
        },
        {
            "buffer" : 0,
            "byteLength" : 1128,
            "byteOffset" : 33912564
        },
        {
            "buffer" : 0,
            "byteLength" : 1128,
            "byteOffset" : 33913692
        },
        {
            "buffer" : 0,
            "byteLength" : 752,
            "byteOffset" : 33914820
        },
        {
            "buffer" : 0,
            "byteLength" : 720,
            "byteOffset" : 33915572
        },
        {
            "buffer" : 0,
            "byteLength" : 287352,
            "byteOffset" : 33916292
        },
        {
            "buffer" : 0,
            "byteLength" : 287352,
            "byteOffset" : 34203644
        },
        {
            "buffer" : 0,
            "byteLength" : 191568,
            "byteOffset" : 34490996
        },
        {
            "buffer" : 0,
            "byteLength" : 266568,
            "byteOffset" : 34682564
        },
        {
            "buffer" : 0,
            "byteLength" : 8784,
            "byteOffset" : 34949132
        },
        {
            "buffer" : 0,
            "byteLength" : 8784,
            "byteOffset" : 34957916
        },
        {
            "buffer" : 0,
            "byteLength" : 5856,
            "byteOffset" : 34966700
        },
        {
            "buffer" : 0,
            "byteLength" : 7536,
            "byteOffset" : 34972556
        },
        {
            "buffer" : 0,
            "byteLength" : 53688,
            "byteOffset" : 34980092
        },
        {
            "buffer" : 0,
            "byteLength" : 53688,
            "byteOffset" : 35033780
        },
        {
            "buffer" : 0,
            "byteLength" : 35792,
            "byteOffset" : 35087468
        },
        {
            "buffer" : 0,
            "byteLength" : 48576,
            "byteOffset" : 35123260
        }
    ],
    "buffers" : [
        {
            "byteLength" : 35171836,
            "uri" : "DUELER H_L 400.bin"
        }
    ]
}
