{
    "asset" : {
        "generator" : "Khronos glTF Blender I/O v1.1.46",
        "version" : "2.0"
    },
    "scene" : 0,
    "scenes" : [
        {
            "name" : "Scene",
            "nodes" : [
                0,
                1,
                2,
                3,
                4,
                5,
                8,
                9
            ]
        }
    ],
    "nodes" : [
        {
            "mesh" : 0,
            "name" : "Circle",
            "rotation" : [
                0.7071068286895752,
                0,
                0,
                0.7071067094802856
            ],
            "scale" : [
                0.009999999776482582,
                0.009999999776482582,
                0.009999999776482582
            ]
        },
        {
            "mesh" : 1,
            "name" : "Plane",
            "rotation" : [
                0.7071068286895752,
                0,
                0,
                0.7071067094802856
            ],
            "scale" : [
                0.009999999776482582,
                0.009999999776482582,
                0.009999999776482582
            ]
        },
        {
            "mesh" : 2,
            "name" : "Plane.001",
            "rotation" : [
                0.7071068286895752,
                0,
                0,
                0.7071067094802856
            ],
            "scale" : [
                0.009999999776482582,
                0.009999999776482582,
                0.009999999776482582
            ]
        },
        {
            "mesh" : 3,
            "name" : "Plane.002",
            "rotation" : [
                0.7071068286895752,
                0,
                0,
                0.7071067094802856
            ],
            "scale" : [
                0.009999999776482582,
                0.009999999776482582,
                0.009999999776482582
            ]
        },
        {
            "mesh" : 4,
            "name" : "Cylinder",
            "rotation" : [
                0.7071068286895752,
                0,
                0,
                0.7071067094802856
            ],
            "scale" : [
                0.009999999776482582,
                0.009999999776482582,
                0.009999999776482582
            ]
        },
        {
            "mesh" : 5,
            "name" : "Plane.003",
            "rotation" : [
                0.7071068286895752,
                0,
                0,
                0.7071067094802856
            ],
            "scale" : [
                0.009999999776482582,
                0.009999999776482582,
                0.009999999776482582
            ]
        },
        {
            "mesh" : 6,
            "name" : "wheels:____________2"
        },
        {
            "mesh" : 7,
            "name" : "wheels:Hyper_NURBS"
        },
        {
            "children" : [
                6,
                7
            ],
            "name" : "group1",
            "rotation" : [
                0.7071068286895752,
                0,
                0,
                0.7071067094802856
            ],
            "scale" : [
                0.009999999776482582,
                0.009999999776482582,
                0.009999999776482582
            ]
        },
        {
            "mesh" : 8,
            "name" : "pSphere1",
            "rotation" : [
                0.7071068286895752,
                0,
                0,
                0.7071067094802856
            ],
            "scale" : [
                0.009999999776482582,
                0.009999999776482582,
                0.009999999776482582
            ]
        }
    ],
    "materials" : [
        {
            "doubleSided" : true,
            "emissiveFactor" : [
                0,
                0,
                0
            ],
            "name" : "Material.001",
            "pbrMetallicRoughness" : {
                "baseColorTexture" : {
                    "index" : 0,
                    "texCoord" : 0
                },
                "metallicFactor" : 0,
                "roughnessFactor" : 0.4000000059604645
            }
        },
        {
            "doubleSided" : true,
            "emissiveFactor" : [
                0,
                0,
                0
            ],
            "name" : "phong6",
            "pbrMetallicRoughness" : {
                "baseColorFactor" : [
                    0.5,
                    0.5,
                    0.5,
                    1
                ],
                "metallicFactor" : 0,
                "roughnessFactor" : 0.4000000059604645
            }
        },
        {
            "doubleSided" : true,
            "emissiveFactor" : [
                0,
                0,
                0
            ],
            "name" : "Aluminium",
            "pbrMetallicRoughness" : {
                "baseColorFactor" : [
                    0.800000011920929,
                    0.800000011920929,
                    0.800000011920929,
                    1
                ],
                "metallicFactor" : 0,
                "roughnessFactor" : 0.4000000059604645
            }
        }
    ],
    "meshes" : [
        {
            "name" : "Mesh",
            "primitives" : [
                {
                    "attributes" : {
                        "POSITION" : 0,
                        "NORMAL" : 1,
                        "TEXCOORD_0" : 2
                    },
                    "indices" : 3,
                    "material" : 0
                }
            ]
        },
        {
            "name" : "Mesh.001",
            "primitives" : [
                {
                    "attributes" : {
                        "POSITION" : 4,
                        "NORMAL" : 5,
                        "TEXCOORD_0" : 6
                    },
                    "indices" : 7,
                    "material" : 0
                }
            ]
        },
        {
            "name" : "Mesh.002",
            "primitives" : [
                {
                    "attributes" : {
                        "POSITION" : 8,
                        "NORMAL" : 9,
                        "TEXCOORD_0" : 10
                    },
                    "indices" : 11,
                    "material" : 0
                }
            ]
        },
        {
            "name" : "Mesh.003",
            "primitives" : [
                {
                    "attributes" : {
                        "POSITION" : 12,
                        "NORMAL" : 13,
                        "TEXCOORD_0" : 14
                    },
                    "indices" : 15,
                    "material" : 0
                }
            ]
        },
        {
            "name" : "Mesh.004",
            "primitives" : [
                {
                    "attributes" : {
                        "POSITION" : 16,
                        "NORMAL" : 17,
                        "TEXCOORD_0" : 18
                    },
                    "indices" : 19,
                    "material" : 1
                }
            ]
        },
        {
            "name" : "Mesh.005",
            "primitives" : [
                {
                    "attributes" : {
                        "POSITION" : 20,
                        "NORMAL" : 21,
                        "TEXCOORD_0" : 22
                    },
                    "indices" : 23,
                    "material" : 0
                }
            ]
        },
        {
            "name" : "Mesh.007",
            "primitives" : [
                {
                    "attributes" : {
                        "POSITION" : 24,
                        "NORMAL" : 25,
                        "TEXCOORD_0" : 26
                    },
                    "indices" : 27,
                    "material" : 2
                }
            ]
        },
        {
            "name" : "Mesh.006",
            "primitives" : [
                {
                    "attributes" : {
                        "POSITION" : 28,
                        "NORMAL" : 29,
                        "TEXCOORD_0" : 30
                    },
                    "indices" : 31,
                    "material" : 2
                }
            ]
        },
        {
            "name" : "Mesh.008",
            "primitives" : [
                {
                    "attributes" : {
                        "POSITION" : 32,
                        "NORMAL" : 33,
                        "TEXCOORD_0" : 34
                    },
                    "indices" : 35,
                    "material" : 2
                }
            ]
        }
    ],
    "textures" : [
        {
            "source" : 0
        }
    ],
    "images" : [
        {
            "mimeType" : "image/jpeg",
            "name" : "V-STEEL R230",
            "uri" : "Textures/V-STEEL%20R230.jpg"
        }
    ],
    "accessors" : [
        {
            "bufferView" : 0,
            "componentType" : 5126,
            "count" : 3350,
            "max" : [
                43.4813232421875,
                177.18661499023438,
                177.00819396972656
            ],
            "min" : [
                -43.4813232421875,
                -177.18661499023438,
                -177.00819396972656
            ],
            "type" : "VEC3"
        },
        {
            "bufferView" : 1,
            "componentType" : 5126,
            "count" : 3350,
            "type" : "VEC3"
        },
        {
            "bufferView" : 2,
            "componentType" : 5126,
            "count" : 3350,
            "type" : "VEC2"
        },
        {
            "bufferView" : 3,
            "componentType" : 5123,
            "count" : 12564,
            "type" : "SCALAR"
        },
        {
            "bufferView" : 4,
            "componentType" : 5126,
            "count" : 53178,
            "max" : [
                5.54192590713501,
                178.66526794433594,
                178.9292755126953
            ],
            "min" : [
                -4.9670209884643555,
                -179.20111083984375,
                -178.95040893554688
            ],
            "type" : "VEC3"
        },
        {
            "bufferView" : 5,
            "componentType" : 5126,
            "count" : 53178,
            "type" : "VEC3"
        },
        {
            "bufferView" : 6,
            "componentType" : 5126,
            "count" : 53178,
            "type" : "VEC2"
        },
        {
            "bufferView" : 7,
            "componentType" : 5123,
            "count" : 129138,
            "type" : "SCALAR"
        },
        {
            "bufferView" : 8,
            "componentType" : 5126,
            "count" : 115227,
            "max" : [
                19.148426055908203,
                178.0758056640625,
                178.30189514160156
            ],
            "min" : [
                -19.148895263671875,
                -178.6290283203125,
                -178.36447143554688
            ],
            "type" : "VEC3"
        },
        {
            "bufferView" : 9,
            "componentType" : 5126,
            "count" : 115227,
            "type" : "VEC3"
        },
        {
            "bufferView" : 10,
            "componentType" : 5126,
            "count" : 115227,
            "type" : "VEC2"
        },
        {
            "bufferView" : 11,
            "componentType" : 5125,
            "count" : 266805,
            "type" : "SCALAR"
        },
        {
            "bufferView" : 12,
            "componentType" : 5126,
            "count" : 138472,
            "max" : [
                38.8104248046875,
                176.0703125,
                176.22918701171875
            ],
            "min" : [
                -38.71436309814453,
                -176.3248748779297,
                -176.2267303466797
            ],
            "type" : "VEC3"
        },
        {
            "bufferView" : 13,
            "componentType" : 5126,
            "count" : 138472,
            "type" : "VEC3"
        },
        {
            "bufferView" : 14,
            "componentType" : 5126,
            "count" : 138472,
            "type" : "VEC2"
        },
        {
            "bufferView" : 15,
            "componentType" : 5125,
            "count" : 351054,
            "type" : "SCALAR"
        },
        {
            "bufferView" : 16,
            "componentType" : 5126,
            "count" : 132,
            "max" : [
                34.165889739990234,
                159.7620086669922,
                159.7620086669922
            ],
            "min" : [
                -34.165889739990234,
                -159.76197814941406,
                -159.7620086669922
            ],
            "type" : "VEC3"
        },
        {
            "bufferView" : 17,
            "componentType" : 5126,
            "count" : 132,
            "type" : "VEC3"
        },
        {
            "bufferView" : 18,
            "componentType" : 5126,
            "count" : 132,
            "type" : "VEC2"
        },
        {
            "bufferView" : 19,
            "componentType" : 5123,
            "count" : 576,
            "type" : "SCALAR"
        },
        {
            "bufferView" : 20,
            "componentType" : 5126,
            "count" : 2690,
            "max" : [
                25.984844207763672,
                5.7999348640441895,
                5.211462020874023
            ],
            "min" : [
                23.289352416992188,
                -5.726961612701416,
                -5.218936920166016
            ],
            "type" : "VEC3"
        },
        {
            "bufferView" : 21,
            "componentType" : 5126,
            "count" : 2690,
            "type" : "VEC3"
        },
        {
            "bufferView" : 22,
            "componentType" : 5126,
            "count" : 2690,
            "type" : "VEC2"
        },
        {
            "bufferView" : 23,
            "componentType" : 5123,
            "count" : 12894,
            "type" : "SCALAR"
        },
        {
            "bufferView" : 24,
            "componentType" : 5126,
            "count" : 170,
            "max" : [
                16.638050079345703,
                26.07968521118164,
                26.57513427734375
            ],
            "min" : [
                7.662468910217285,
                -26.067203521728516,
                -23.062576293945312
            ],
            "type" : "VEC3"
        },
        {
            "bufferView" : 25,
            "componentType" : 5126,
            "count" : 170,
            "type" : "VEC3"
        },
        {
            "bufferView" : 26,
            "componentType" : 5126,
            "count" : 170,
            "type" : "VEC2"
        },
        {
            "bufferView" : 27,
            "componentType" : 5123,
            "count" : 450,
            "type" : "SCALAR"
        },
        {
            "bufferView" : 28,
            "componentType" : 5126,
            "count" : 5798,
            "max" : [
                28.137659072875977,
                93.35311889648438,
                93.34866333007812
            ],
            "min" : [
                -27.509490966796875,
                -93.44153594970703,
                -93.43721008300781
            ],
            "type" : "VEC3"
        },
        {
            "bufferView" : 29,
            "componentType" : 5126,
            "count" : 5798,
            "type" : "VEC3"
        },
        {
            "bufferView" : 30,
            "componentType" : 5126,
            "count" : 5798,
            "type" : "VEC2"
        },
        {
            "bufferView" : 31,
            "componentType" : 5123,
            "count" : 12948,
            "type" : "SCALAR"
        },
        {
            "bufferView" : 32,
            "componentType" : 5126,
            "count" : 125,
            "max" : [
                25.000198364257812,
                10.697885513305664,
                10.697884559631348
            ],
            "min" : [
                21.942020416259766,
                -10.69788932800293,
                -10.697887420654297
            ],
            "type" : "VEC3"
        },
        {
            "bufferView" : 33,
            "componentType" : 5126,
            "count" : 125,
            "type" : "VEC3"
        },
        {
            "bufferView" : 34,
            "componentType" : 5126,
            "count" : 125,
            "type" : "VEC2"
        },
        {
            "bufferView" : 35,
            "componentType" : 5123,
            "count" : 540,
            "type" : "SCALAR"
        }
    ],
    "bufferViews" : [
        {
            "buffer" : 0,
            "byteLength" : 40200,
            "byteOffset" : 0
        },
        {
            "buffer" : 0,
            "byteLength" : 40200,
            "byteOffset" : 40200
        },
        {
            "buffer" : 0,
            "byteLength" : 26800,
            "byteOffset" : 80400
        },
        {
            "buffer" : 0,
            "byteLength" : 25128,
            "byteOffset" : 107200
        },
        {
            "buffer" : 0,
            "byteLength" : 638136,
            "byteOffset" : 132328
        },
        {
            "buffer" : 0,
            "byteLength" : 638136,
            "byteOffset" : 770464
        },
        {
            "buffer" : 0,
            "byteLength" : 425424,
            "byteOffset" : 1408600
        },
        {
            "buffer" : 0,
            "byteLength" : 258276,
            "byteOffset" : 1834024
        },
        {
            "buffer" : 0,
            "byteLength" : 1382724,
            "byteOffset" : 2092300
        },
        {
            "buffer" : 0,
            "byteLength" : 1382724,
            "byteOffset" : 3475024
        },
        {
            "buffer" : 0,
            "byteLength" : 921816,
            "byteOffset" : 4857748
        },
        {
            "buffer" : 0,
            "byteLength" : 1067220,
            "byteOffset" : 5779564
        },
        {
            "buffer" : 0,
            "byteLength" : 1661664,
            "byteOffset" : 6846784
        },
        {
            "buffer" : 0,
            "byteLength" : 1661664,
            "byteOffset" : 8508448
        },
        {
            "buffer" : 0,
            "byteLength" : 1107776,
            "byteOffset" : 10170112
        },
        {
            "buffer" : 0,
            "byteLength" : 1404216,
            "byteOffset" : 11277888
        },
        {
            "buffer" : 0,
            "byteLength" : 1584,
            "byteOffset" : 12682104
        },
        {
            "buffer" : 0,
            "byteLength" : 1584,
            "byteOffset" : 12683688
        },
        {
            "buffer" : 0,
            "byteLength" : 1056,
            "byteOffset" : 12685272
        },
        {
            "buffer" : 0,
            "byteLength" : 1152,
            "byteOffset" : 12686328
        },
        {
            "buffer" : 0,
            "byteLength" : 32280,
            "byteOffset" : 12687480
        },
        {
            "buffer" : 0,
            "byteLength" : 32280,
            "byteOffset" : 12719760
        },
        {
            "buffer" : 0,
            "byteLength" : 21520,
            "byteOffset" : 12752040
        },
        {
            "buffer" : 0,
            "byteLength" : 25788,
            "byteOffset" : 12773560
        },
        {
            "buffer" : 0,
            "byteLength" : 2040,
            "byteOffset" : 12799348
        },
        {
            "buffer" : 0,
            "byteLength" : 2040,
            "byteOffset" : 12801388
        },
        {
            "buffer" : 0,
            "byteLength" : 1360,
            "byteOffset" : 12803428
        },
        {
            "buffer" : 0,
            "byteLength" : 900,
            "byteOffset" : 12804788
        },
        {
            "buffer" : 0,
            "byteLength" : 69576,
            "byteOffset" : 12805688
        },
        {
            "buffer" : 0,
            "byteLength" : 69576,
            "byteOffset" : 12875264
        },
        {
            "buffer" : 0,
            "byteLength" : 46384,
            "byteOffset" : 12944840
        },
        {
            "buffer" : 0,
            "byteLength" : 25896,
            "byteOffset" : 12991224
        },
        {
            "buffer" : 0,
            "byteLength" : 1500,
            "byteOffset" : 13017120
        },
        {
            "buffer" : 0,
            "byteLength" : 1500,
            "byteOffset" : 13018620
        },
        {
            "buffer" : 0,
            "byteLength" : 1000,
            "byteOffset" : 13020120
        },
        {
            "buffer" : 0,
            "byteLength" : 1080,
            "byteOffset" : 13021120
        }
    ],
    "buffers" : [
        {
            "byteLength" : 13022200,
            "uri" : "V-STEEL R230.bin"
        }
    ]
}
