{
    "asset" : {
        "generator" : "Khronos glTF Blender I/O v1.1.46",
        "version" : "2.0"
    },
    "scene" : 0,
    "scenes" : [
        {
            "name" : "Scene",
            "nodes" : [
                0,
                1,
                2,
                3,
                4,
                5,
                6,
                7
            ]
        }
    ],
    "nodes" : [
        {
            "mesh" : 0,
            "name" : "Circle",
            "rotation" : [
                0.7071068286895752,
                0,
                0,
                0.7071067094802856
            ],
            "scale" : [
                0.009999999776482582,
                0.009999999776482582,
                0.009999999776482582
            ]
        },
        {
            "mesh" : 1,
            "name" : "Plane",
            "rotation" : [
                0.7071068286895752,
                0,
                0,
                0.7071067094802856
            ],
            "scale" : [
                0.009999999776482582,
                0.009999999776482582,
                0.009999999776482582
            ]
        },
        {
            "mesh" : 2,
            "name" : "Plane.001",
            "rotation" : [
                0.7071068286895752,
                0,
                0,
                0.7071067094802856
            ],
            "scale" : [
                0.009999999776482582,
                0.009999999776482582,
                0.009999999776482582
            ]
        },
        {
            "mesh" : 3,
            "name" : "Plane.002",
            "rotation" : [
                0.7071068286895752,
                0,
                0,
                0.7071067094802856
            ],
            "scale" : [
                0.009999999776482582,
                0.009999999776482582,
                0.009999999776482582
            ]
        },
        {
            "mesh" : 4,
            "name" : "Plane.003",
            "rotation" : [
                0.7071068286895752,
                0,
                0,
                0.7071067094802856
            ],
            "scale" : [
                0.009999999776482582,
                0.009999999776482582,
                0.009999999776482582
            ]
        },
        {
            "mesh" : 5,
            "name" : "Plane.004",
            "rotation" : [
                0.7071068286895752,
                0,
                0,
                0.7071067094802856
            ],
            "scale" : [
                0.009999999776482582,
                0.009999999776482582,
                0.009999999776482582
            ]
        },
        {
            "mesh" : 6,
            "name" : "Brake_Disk.001",
            "rotation" : [
                0.7071068286895752,
                0,
                0,
                0.7071067094802856
            ],
            "scale" : [
                0.009999999776482582,
                0.009999999776482582,
                0.009999999776482582
            ]
        },
        {
            "mesh" : 7,
            "name" : "Rim",
            "rotation" : [
                0.7071068286895752,
                0,
                0,
                0.7071067094802856
            ],
            "scale" : [
                0.009999999776482582,
                0.009999999776482582,
                0.009999999776482582
            ]
        }
    ],
    "materials" : [
        {
            "doubleSided" : true,
            "emissiveFactor" : [
                0,
                0,
                0
            ],
            "name" : "Material.001",
            "pbrMetallicRoughness" : {
                "baseColorTexture" : {
                    "index" : 0,
                    "texCoord" : 0
                },
                "metallicFactor" : 0,
                "roughnessFactor" : 0.4000000059604645
            }
        },
        {
            "doubleSided" : true,
            "emissiveFactor" : [
                0,
                0,
                0
            ],
            "name" : "Volkswagen_Touareg_Hybrid_Wheel_OBJ_wire_115115115.001",
            "pbrMetallicRoughness" : {
                "baseColorFactor" : [
                    0.800000011920929,
                    0.800000011920929,
                    0.800000011920929,
                    1
                ],
                "metallicFactor" : 0,
                "roughnessFactor" : 0.4000000059604645
            }
        },
        {
            "doubleSided" : true,
            "emissiveFactor" : [
                0,
                0,
                0
            ],
            "name" : "Volkswagen_Touareg_Hybrid_Wheel_OBJ_wire_224198087",
            "pbrMetallicRoughness" : {
                "baseColorFactor" : [
                    0.800000011920929,
                    0.800000011920929,
                    0.800000011920929,
                    1
                ],
                "metallicFactor" : 0,
                "roughnessFactor" : 0.4000000059604645
            }
        }
    ],
    "meshes" : [
        {
            "name" : "Mesh",
            "primitives" : [
                {
                    "attributes" : {
                        "POSITION" : 0,
                        "NORMAL" : 1,
                        "TEXCOORD_0" : 2
                    },
                    "indices" : 3,
                    "material" : 0
                }
            ]
        },
        {
            "name" : "Mesh.001",
            "primitives" : [
                {
                    "attributes" : {
                        "POSITION" : 4,
                        "NORMAL" : 5,
                        "TEXCOORD_0" : 6
                    },
                    "indices" : 7,
                    "material" : 0
                }
            ]
        },
        {
            "name" : "Mesh.002",
            "primitives" : [
                {
                    "attributes" : {
                        "POSITION" : 8,
                        "NORMAL" : 9,
                        "TEXCOORD_0" : 10
                    },
                    "indices" : 11,
                    "material" : 0
                }
            ]
        },
        {
            "name" : "Mesh.003",
            "primitives" : [
                {
                    "attributes" : {
                        "POSITION" : 12,
                        "NORMAL" : 13,
                        "TEXCOORD_0" : 14
                    },
                    "indices" : 15,
                    "material" : 0
                }
            ]
        },
        {
            "name" : "Mesh.004",
            "primitives" : [
                {
                    "attributes" : {
                        "POSITION" : 16,
                        "NORMAL" : 17,
                        "TEXCOORD_0" : 18
                    },
                    "indices" : 19,
                    "material" : 0
                }
            ]
        },
        {
            "name" : "Mesh.005",
            "primitives" : [
                {
                    "attributes" : {
                        "POSITION" : 20,
                        "NORMAL" : 21,
                        "TEXCOORD_0" : 22
                    },
                    "indices" : 23,
                    "material" : 0
                }
            ]
        },
        {
            "name" : "Mesh.006",
            "primitives" : [
                {
                    "attributes" : {
                        "POSITION" : 24,
                        "NORMAL" : 25,
                        "TEXCOORD_0" : 26
                    },
                    "indices" : 27,
                    "material" : 1
                }
            ]
        },
        {
            "name" : "Mesh.007",
            "primitives" : [
                {
                    "attributes" : {
                        "POSITION" : 28,
                        "NORMAL" : 29,
                        "TEXCOORD_0" : 30
                    },
                    "indices" : 31,
                    "material" : 2
                }
            ]
        }
    ],
    "textures" : [
        {
            "source" : 0
        }
    ],
    "images" : [
        {
            "mimeType" : "image/jpeg",
            "name" : "DUELER H_T 840",
            "uri" : "Textures/DUELER%20H_T%20840.jpg"
        }
    ],
    "accessors" : [
        {
            "bufferView" : 0,
            "componentType" : 5126,
            "count" : 4077,
            "max" : [
                70.16798400878906,
                209.9639129638672,
                209.75250244140625
            ],
            "min" : [
                -70.16798400878906,
                -209.9639129638672,
                -209.7525177001953
            ],
            "type" : "VEC3"
        },
        {
            "bufferView" : 1,
            "componentType" : 5126,
            "count" : 4077,
            "type" : "VEC3"
        },
        {
            "bufferView" : 2,
            "componentType" : 5126,
            "count" : 4077,
            "type" : "VEC2"
        },
        {
            "bufferView" : 3,
            "componentType" : 5123,
            "count" : 19788,
            "type" : "SCALAR"
        },
        {
            "bufferView" : 4,
            "componentType" : 5126,
            "count" : 55882,
            "max" : [
                9.473048210144043,
                213.01608276367188,
                212.71522521972656
            ],
            "min" : [
                -9.372676849365234,
                -212.41436767578125,
                -212.71522521972656
            ],
            "type" : "VEC3"
        },
        {
            "bufferView" : 5,
            "componentType" : 5126,
            "count" : 55882,
            "type" : "VEC3"
        },
        {
            "bufferView" : 6,
            "componentType" : 5126,
            "count" : 55882,
            "type" : "VEC2"
        },
        {
            "bufferView" : 7,
            "componentType" : 5123,
            "count" : 97491,
            "type" : "SCALAR"
        },
        {
            "bufferView" : 8,
            "componentType" : 5126,
            "count" : 82263,
            "max" : [
                34.52812957763672,
                212.66583251953125,
                212.30154418945312
            ],
            "min" : [
                -34.52812957763672,
                -211.9371795654297,
                -212.30796813964844
            ],
            "type" : "VEC3"
        },
        {
            "bufferView" : 9,
            "componentType" : 5126,
            "count" : 82263,
            "type" : "VEC3"
        },
        {
            "bufferView" : 10,
            "componentType" : 5126,
            "count" : 82263,
            "type" : "VEC2"
        },
        {
            "bufferView" : 11,
            "componentType" : 5125,
            "count" : 301851,
            "type" : "SCALAR"
        },
        {
            "bufferView" : 12,
            "componentType" : 5126,
            "count" : 43718,
            "max" : [
                49.4899787902832,
                209.6358184814453,
                209.06138610839844
            ],
            "min" : [
                -49.48508071899414,
                -208.47293090820312,
                -209.095458984375
            ],
            "type" : "VEC3"
        },
        {
            "bufferView" : 13,
            "componentType" : 5126,
            "count" : 43718,
            "type" : "VEC3"
        },
        {
            "bufferView" : 14,
            "componentType" : 5126,
            "count" : 43718,
            "type" : "VEC2"
        },
        {
            "bufferView" : 15,
            "componentType" : 5123,
            "count" : 183300,
            "type" : "SCALAR"
        },
        {
            "bufferView" : 16,
            "componentType" : 5126,
            "count" : 275079,
            "max" : [
                71.67972564697266,
                206.17184448242188,
                205.57749938964844
            ],
            "min" : [
                -71.67972564697266,
                -205.0752410888672,
                -205.6276092529297
            ],
            "type" : "VEC3"
        },
        {
            "bufferView" : 17,
            "componentType" : 5126,
            "count" : 275079,
            "type" : "VEC3"
        },
        {
            "bufferView" : 18,
            "componentType" : 5126,
            "count" : 275079,
            "type" : "VEC2"
        },
        {
            "bufferView" : 19,
            "componentType" : 5125,
            "count" : 495138,
            "type" : "SCALAR"
        },
        {
            "bufferView" : 20,
            "componentType" : 5126,
            "count" : 1236,
            "max" : [
                49.600189208984375,
                20.161792755126953,
                18.140785217285156
            ],
            "min" : [
                40.21736145019531,
                -19.935211181640625,
                -18.166805267333984
            ],
            "type" : "VEC3"
        },
        {
            "bufferView" : 21,
            "componentType" : 5126,
            "count" : 1236,
            "type" : "VEC3"
        },
        {
            "bufferView" : 22,
            "componentType" : 5126,
            "count" : 1236,
            "type" : "VEC2"
        },
        {
            "bufferView" : 23,
            "componentType" : 5123,
            "count" : 6504,
            "type" : "SCALAR"
        },
        {
            "bufferView" : 24,
            "componentType" : 5126,
            "count" : 417,
            "max" : [
                45.333614349365234,
                35.608306884765625,
                35.542057037353516
            ],
            "min" : [
                31.397384643554688,
                -35.5728874206543,
                -35.578956604003906
            ],
            "type" : "VEC3"
        },
        {
            "bufferView" : 25,
            "componentType" : 5126,
            "count" : 417,
            "type" : "VEC3"
        },
        {
            "bufferView" : 26,
            "componentType" : 5126,
            "count" : 417,
            "type" : "VEC2"
        },
        {
            "bufferView" : 27,
            "componentType" : 5123,
            "count" : 2340,
            "type" : "SCALAR"
        },
        {
            "bufferView" : 28,
            "componentType" : 5126,
            "count" : 12086,
            "max" : [
                36.91524887084961,
                106.9975814819336,
                106.705322265625
            ],
            "min" : [
                -35.87490463256836,
                -107.40013885498047,
                -107.72882843017578
            ],
            "type" : "VEC3"
        },
        {
            "bufferView" : 29,
            "componentType" : 5126,
            "count" : 12086,
            "type" : "VEC3"
        },
        {
            "bufferView" : 30,
            "componentType" : 5126,
            "count" : 12086,
            "type" : "VEC2"
        },
        {
            "bufferView" : 31,
            "componentType" : 5123,
            "count" : 52005,
            "type" : "SCALAR"
        }
    ],
    "bufferViews" : [
        {
            "buffer" : 0,
            "byteLength" : 48924,
            "byteOffset" : 0
        },
        {
            "buffer" : 0,
            "byteLength" : 48924,
            "byteOffset" : 48924
        },
        {
            "buffer" : 0,
            "byteLength" : 32616,
            "byteOffset" : 97848
        },
        {
            "buffer" : 0,
            "byteLength" : 39576,
            "byteOffset" : 130464
        },
        {
            "buffer" : 0,
            "byteLength" : 670584,
            "byteOffset" : 170040
        },
        {
            "buffer" : 0,
            "byteLength" : 670584,
            "byteOffset" : 840624
        },
        {
            "buffer" : 0,
            "byteLength" : 447056,
            "byteOffset" : 1511208
        },
        {
            "buffer" : 0,
            "byteLength" : 194982,
            "byteOffset" : 1958264
        },
        {
            "buffer" : 0,
            "byteLength" : 987156,
            "byteOffset" : 2153248
        },
        {
            "buffer" : 0,
            "byteLength" : 987156,
            "byteOffset" : 3140404
        },
        {
            "buffer" : 0,
            "byteLength" : 658104,
            "byteOffset" : 4127560
        },
        {
            "buffer" : 0,
            "byteLength" : 1207404,
            "byteOffset" : 4785664
        },
        {
            "buffer" : 0,
            "byteLength" : 524616,
            "byteOffset" : 5993068
        },
        {
            "buffer" : 0,
            "byteLength" : 524616,
            "byteOffset" : 6517684
        },
        {
            "buffer" : 0,
            "byteLength" : 349744,
            "byteOffset" : 7042300
        },
        {
            "buffer" : 0,
            "byteLength" : 366600,
            "byteOffset" : 7392044
        },
        {
            "buffer" : 0,
            "byteLength" : 3300948,
            "byteOffset" : 7758644
        },
        {
            "buffer" : 0,
            "byteLength" : 3300948,
            "byteOffset" : 11059592
        },
        {
            "buffer" : 0,
            "byteLength" : 2200632,
            "byteOffset" : 14360540
        },
        {
            "buffer" : 0,
            "byteLength" : 1980552,
            "byteOffset" : 16561172
        },
        {
            "buffer" : 0,
            "byteLength" : 14832,
            "byteOffset" : 18541724
        },
        {
            "buffer" : 0,
            "byteLength" : 14832,
            "byteOffset" : 18556556
        },
        {
            "buffer" : 0,
            "byteLength" : 9888,
            "byteOffset" : 18571388
        },
        {
            "buffer" : 0,
            "byteLength" : 13008,
            "byteOffset" : 18581276
        },
        {
            "buffer" : 0,
            "byteLength" : 5004,
            "byteOffset" : 18594284
        },
        {
            "buffer" : 0,
            "byteLength" : 5004,
            "byteOffset" : 18599288
        },
        {
            "buffer" : 0,
            "byteLength" : 3336,
            "byteOffset" : 18604292
        },
        {
            "buffer" : 0,
            "byteLength" : 4680,
            "byteOffset" : 18607628
        },
        {
            "buffer" : 0,
            "byteLength" : 145032,
            "byteOffset" : 18612308
        },
        {
            "buffer" : 0,
            "byteLength" : 145032,
            "byteOffset" : 18757340
        },
        {
            "buffer" : 0,
            "byteLength" : 96688,
            "byteOffset" : 18902372
        },
        {
            "buffer" : 0,
            "byteLength" : 104010,
            "byteOffset" : 18999060
        }
    ],
    "buffers" : [
        {
            "byteLength" : 19103072,
            "uri" : "DUELER H_T 840.bin"
        }
    ]
}
