{
    "asset" : {
        "generator" : "Khronos glTF Blender I/O v1.1.46",
        "version" : "2.0"
    },
    "scene" : 0,
    "scenes" : [
        {
            "name" : "Scene",
            "nodes" : [
                0,
                1,
                2,
                5,
                6
            ]
        }
    ],
    "nodes" : [
        {
            "mesh" : 0,
            "name" : "Plane",
            "rotation" : [
                0.7071068286895752,
                0,
                0,
                0.7071067094802856
            ],
            "scale" : [
                0.009999999776482582,
                0.009999999776482582,
                0.009999999776482582
            ]
        },
        {
            "mesh" : 1,
            "name" : "Cylinder",
            "rotation" : [
                0.7071068286895752,
                0,
                0,
                0.7071067094802856
            ],
            "scale" : [
                0.009999999776482582,
                0.009999999776482582,
                0.009999999776482582
            ]
        },
        {
            "mesh" : 2,
            "name" : "Plane.001",
            "rotation" : [
                0.7071068286895752,
                0,
                0,
                0.7071067094802856
            ],
            "scale" : [
                0.009999999776482582,
                0.009999999776482582,
                0.009999999776482582
            ]
        },
        {
            "mesh" : 3,
            "name" : "wheels:____________2"
        },
        {
            "mesh" : 4,
            "name" : "wheels:Hyper_NURBS"
        },
        {
            "children" : [
                3,
                4
            ],
            "name" : "group1",
            "rotation" : [
                0.7071068286895752,
                0,
                0,
                0.7071067094802856
            ],
            "scale" : [
                0.012950838543474674,
                0.012950838543474674,
                0.012950838543474674
            ],
            "translation" : [
                0.00023654410324525088,
                3.03501033782959,
                0.9983237385749817
            ]
        },
        {
            "mesh" : 5,
            "name" : "pSphere1",
            "rotation" : [
                0.7071068286895752,
                0,
                0,
                0.7071067094802856
            ],
            "scale" : [
                0.009999999776482582,
                0.009999999776482582,
                0.009999999776482582
            ]
        }
    ],
    "materials" : [
        {
            "doubleSided" : true,
            "emissiveFactor" : [
                0,
                0,
                0
            ],
            "name" : "Material.001",
            "pbrMetallicRoughness" : {
                "baseColorTexture" : {
                    "index" : 0,
                    "texCoord" : 0
                },
                "metallicFactor" : 0,
                "roughnessFactor" : 0.4000000059604645
            }
        },
        {
            "doubleSided" : true,
            "emissiveFactor" : [
                0,
                0,
                0
            ],
            "name" : "phong5",
            "pbrMetallicRoughness" : {
                "baseColorFactor" : [
                    0.5,
                    0.5,
                    0.5,
                    1
                ],
                "metallicFactor" : 0,
                "roughnessFactor" : 0.4000000059604645
            }
        },
        {
            "doubleSided" : true,
            "emissiveFactor" : [
                0,
                0,
                0
            ],
            "name" : "Bolt",
            "pbrMetallicRoughness" : {
                "baseColorFactor" : [
                    0.800000011920929,
                    0.800000011920929,
                    0.800000011920929,
                    1
                ],
                "metallicFactor" : 0,
                "roughnessFactor" : 0.4000000059604645
            }
        }
    ],
    "meshes" : [
        {
            "name" : "Mesh",
            "primitives" : [
                {
                    "attributes" : {
                        "POSITION" : 0,
                        "NORMAL" : 1,
                        "TEXCOORD_0" : 2
                    },
                    "indices" : 3,
                    "material" : 0
                }
            ]
        },
        {
            "name" : "Mesh.001",
            "primitives" : [
                {
                    "attributes" : {
                        "POSITION" : 4,
                        "NORMAL" : 5,
                        "TEXCOORD_0" : 6
                    },
                    "indices" : 7,
                    "material" : 1
                }
            ]
        },
        {
            "name" : "Mesh.002",
            "primitives" : [
                {
                    "attributes" : {
                        "POSITION" : 8,
                        "NORMAL" : 9,
                        "TEXCOORD_0" : 10
                    },
                    "indices" : 11,
                    "material" : 0
                }
            ]
        },
        {
            "name" : "Mesh.003",
            "primitives" : [
                {
                    "attributes" : {
                        "POSITION" : 12,
                        "NORMAL" : 13,
                        "TEXCOORD_0" : 14
                    },
                    "indices" : 15,
                    "material" : 2
                }
            ]
        },
        {
            "name" : "Mesh.004",
            "primitives" : [
                {
                    "attributes" : {
                        "POSITION" : 16,
                        "NORMAL" : 17,
                        "TEXCOORD_0" : 18
                    },
                    "indices" : 19,
                    "material" : 2
                }
            ]
        },
        {
            "name" : "Mesh.005",
            "primitives" : [
                {
                    "attributes" : {
                        "POSITION" : 20,
                        "NORMAL" : 21,
                        "TEXCOORD_0" : 22
                    },
                    "indices" : 23,
                    "material" : 2
                }
            ]
        }
    ],
    "textures" : [
        {
            "source" : 0
        }
    ],
    "images" : [
        {
            "mimeType" : "image/jpeg",
            "name" : "ALENZA side wall 02-01",
            "uri" : "Textures/ALENZA%20side%20wall%2002-01.jpg"
        }
    ],
    "accessors" : [
        {
            "bufferView" : 0,
            "componentType" : 5126,
            "count" : 122997,
            "max" : [
                340.3541259765625,
                121.36211395263672,
                340.35992431640625
            ],
            "min" : [
                -340.1593322753906,
                -142.38702392578125,
                -340.1395263671875
            ],
            "type" : "VEC3"
        },
        {
            "bufferView" : 1,
            "componentType" : 5126,
            "count" : 122997,
            "type" : "VEC3"
        },
        {
            "bufferView" : 2,
            "componentType" : 5126,
            "count" : 122997,
            "type" : "VEC2"
        },
        {
            "bufferView" : 3,
            "componentType" : 5125,
            "count" : 527010,
            "type" : "SCALAR"
        },
        {
            "bufferView" : 4,
            "componentType" : 5126,
            "count" : 34,
            "max" : [
                309.0141906738281,
                111.42383575439453,
                309.2535705566406
            ],
            "min" : [
                -309.3712158203125,
                -118.45580291748047,
                -309.13165283203125
            ],
            "type" : "VEC3"
        },
        {
            "bufferView" : 5,
            "componentType" : 5126,
            "count" : 34,
            "type" : "VEC3"
        },
        {
            "bufferView" : 6,
            "componentType" : 5126,
            "count" : 34,
            "type" : "VEC2"
        },
        {
            "bufferView" : 7,
            "componentType" : 5123,
            "count" : 96,
            "type" : "SCALAR"
        },
        {
            "bufferView" : 8,
            "componentType" : 5126,
            "count" : 1855,
            "max" : [
                14.741965293884277,
                98.01222229003906,
                11.689854621887207
            ],
            "min" : [
                -16.686994552612305,
                90.6577377319336,
                -16.76879119873047
            ],
            "type" : "VEC3"
        },
        {
            "bufferView" : 9,
            "componentType" : 5126,
            "count" : 1855,
            "type" : "VEC3"
        },
        {
            "bufferView" : 10,
            "componentType" : 5126,
            "count" : 1855,
            "type" : "VEC2"
        },
        {
            "bufferView" : 11,
            "componentType" : 5123,
            "count" : 5850,
            "type" : "SCALAR"
        },
        {
            "bufferView" : 12,
            "componentType" : 5126,
            "count" : 170,
            "max" : [
                51.785682678222656,
                -15.333791732788086,
                287.1618957519531
            ],
            "min" : [
                -51.847023010253906,
                -33.17116928100586,
                188.51576232910156
            ],
            "type" : "VEC3"
        },
        {
            "bufferView" : 13,
            "componentType" : 5126,
            "count" : 170,
            "type" : "VEC3"
        },
        {
            "bufferView" : 14,
            "componentType" : 5126,
            "count" : 170,
            "type" : "VEC2"
        },
        {
            "bufferView" : 15,
            "componentType" : 5123,
            "count" : 450,
            "type" : "SCALAR"
        },
        {
            "bufferView" : 16,
            "componentType" : 5126,
            "count" : 12970,
            "max" : [
                186.3662872314453,
                0,
                420.7243347167969
            ],
            "min" : [
                -186.40281677246094,
                -166.36724853515625,
                47.9727668762207
            ],
            "type" : "VEC3"
        },
        {
            "bufferView" : 17,
            "componentType" : 5126,
            "count" : 12970,
            "type" : "VEC3"
        },
        {
            "bufferView" : 18,
            "componentType" : 5126,
            "count" : 12970,
            "type" : "VEC2"
        },
        {
            "bufferView" : 19,
            "componentType" : 5123,
            "count" : 42420,
            "type" : "SCALAR"
        },
        {
            "bufferView" : 20,
            "componentType" : 5126,
            "count" : 230,
            "max" : [
                27.779857635498047,
                96.26581573486328,
                27.779861450195312
            ],
            "min" : [
                -27.779863357543945,
                82.52412414550781,
                -27.779870986938477
            ],
            "type" : "VEC3"
        },
        {
            "bufferView" : 21,
            "componentType" : 5126,
            "count" : 230,
            "type" : "VEC3"
        },
        {
            "bufferView" : 22,
            "componentType" : 5126,
            "count" : 230,
            "type" : "VEC2"
        },
        {
            "bufferView" : 23,
            "componentType" : 5123,
            "count" : 1140,
            "type" : "SCALAR"
        }
    ],
    "bufferViews" : [
        {
            "buffer" : 0,
            "byteLength" : 1475964,
            "byteOffset" : 0
        },
        {
            "buffer" : 0,
            "byteLength" : 1475964,
            "byteOffset" : 1475964
        },
        {
            "buffer" : 0,
            "byteLength" : 983976,
            "byteOffset" : 2951928
        },
        {
            "buffer" : 0,
            "byteLength" : 2108040,
            "byteOffset" : 3935904
        },
        {
            "buffer" : 0,
            "byteLength" : 408,
            "byteOffset" : 6043944
        },
        {
            "buffer" : 0,
            "byteLength" : 408,
            "byteOffset" : 6044352
        },
        {
            "buffer" : 0,
            "byteLength" : 272,
            "byteOffset" : 6044760
        },
        {
            "buffer" : 0,
            "byteLength" : 192,
            "byteOffset" : 6045032
        },
        {
            "buffer" : 0,
            "byteLength" : 22260,
            "byteOffset" : 6045224
        },
        {
            "buffer" : 0,
            "byteLength" : 22260,
            "byteOffset" : 6067484
        },
        {
            "buffer" : 0,
            "byteLength" : 14840,
            "byteOffset" : 6089744
        },
        {
            "buffer" : 0,
            "byteLength" : 11700,
            "byteOffset" : 6104584
        },
        {
            "buffer" : 0,
            "byteLength" : 2040,
            "byteOffset" : 6116284
        },
        {
            "buffer" : 0,
            "byteLength" : 2040,
            "byteOffset" : 6118324
        },
        {
            "buffer" : 0,
            "byteLength" : 1360,
            "byteOffset" : 6120364
        },
        {
            "buffer" : 0,
            "byteLength" : 900,
            "byteOffset" : 6121724
        },
        {
            "buffer" : 0,
            "byteLength" : 155640,
            "byteOffset" : 6122624
        },
        {
            "buffer" : 0,
            "byteLength" : 155640,
            "byteOffset" : 6278264
        },
        {
            "buffer" : 0,
            "byteLength" : 103760,
            "byteOffset" : 6433904
        },
        {
            "buffer" : 0,
            "byteLength" : 84840,
            "byteOffset" : 6537664
        },
        {
            "buffer" : 0,
            "byteLength" : 2760,
            "byteOffset" : 6622504
        },
        {
            "buffer" : 0,
            "byteLength" : 2760,
            "byteOffset" : 6625264
        },
        {
            "buffer" : 0,
            "byteLength" : 1840,
            "byteOffset" : 6628024
        },
        {
            "buffer" : 0,
            "byteLength" : 2280,
            "byteOffset" : 6629864
        }
    ],
    "buffers" : [
        {
            "byteLength" : 6632144,
            "uri" : "ALENZA 001.bin"
        }
    ]
}
